<svg width="18" height="18" viewBox="0 0 18 18" fill="none" xmlns="http://www.w3.org/2000/svg">
<path d="M2.64057 2.6342C3.6531 1.62118 4.89305 0.864796 6.25712 0.428061C7.62119 -0.00867436 9.06988 -0.113113 10.4825 0.123446C11.8997 0.358987 13.2398 0.930808 14.3905 1.79098C15.5412 2.65116 16.469 3.77463 17.096 5.06723C17.723 6.35984 18.0311 7.78391 17.9944 9.22011C17.9576 10.6563 17.5772 12.0628 16.8849 13.3216C16.8656 13.3729 16.8656 13.4294 16.8849 13.4806L17.7469 16.4517C17.8033 16.6329 17.8089 16.8261 17.7632 17.0102C17.7174 17.1944 17.6221 17.3624 17.4875 17.4962C17.3529 17.6299 17.1842 17.7242 16.9997 17.7688C16.8153 17.8133 16.6222 17.8065 16.4413 17.7489L13.487 16.8618C13.4329 16.8426 13.3738 16.8426 13.3196 16.8618C12.0005 17.6026 10.5141 17.9943 9.00114 18C8.35158 17.9986 7.70383 17.9313 7.06786 17.7991C5.49025 17.4516 4.03518 16.6861 2.85517 15.5828C1.67515 14.4795 0.813627 13.0792 0.36091 11.5285C-0.0918064 9.97775 -0.119051 8.33382 0.282032 6.76896C0.683115 5.20411 1.49776 3.77596 2.64057 2.6342ZM12.3488 10.4259C12.5557 10.4259 12.758 10.3645 12.93 10.2496C13.1021 10.1346 13.2361 9.97125 13.3153 9.78009C13.3945 9.58894 13.4152 9.37859 13.3749 9.17566C13.3345 8.97273 13.2349 8.78632 13.0885 8.64001C12.9422 8.49371 12.7558 8.39407 12.5529 8.35371C12.35 8.31334 12.1396 8.33406 11.9485 8.41324C11.7573 8.49242 11.5939 8.62651 11.479 8.79854C11.364 8.97058 11.3027 9.17284 11.3027 9.37975C11.3027 9.65721 11.4129 9.9233 11.6091 10.1195C11.8053 10.3157 12.0714 10.4259 12.3488 10.4259ZM9.00114 10.4259C9.20805 10.4259 9.41031 10.3645 9.58235 10.2496C9.75439 10.1346 9.88847 9.97125 9.96765 9.78009C10.0468 9.58894 10.0676 9.37859 10.0272 9.17566C9.98682 8.97273 9.88719 8.78632 9.74088 8.64001C9.59457 8.49371 9.40817 8.39407 9.20523 8.35371C9.0023 8.31334 8.79196 8.33406 8.6008 8.41324C8.40964 8.49242 8.24625 8.62651 8.1313 8.79854C8.01635 8.97058 7.95499 9.17284 7.95499 9.37975C7.95499 9.65721 8.06521 9.9233 8.2614 10.1195C8.45759 10.3157 8.72369 10.4259 9.00114 10.4259ZM5.65347 10.4259C5.86038 10.4259 6.06264 10.3645 6.23468 10.2496C6.40672 10.1346 6.5408 9.97125 6.61998 9.78009C6.69917 9.58894 6.71988 9.37859 6.67952 9.17566C6.63915 8.97273 6.53952 8.78632 6.39321 8.64001C6.2469 8.49371 6.0605 8.39407 5.85756 8.35371C5.65463 8.31334 5.44429 8.33406 5.25313 8.41324C5.06197 8.49242 4.89858 8.62651 4.78363 8.79854C4.66868 8.97058 4.60732 9.17284 4.60732 9.37975C4.60732 9.65721 4.71754 9.9233 4.91373 10.1195C5.10992 10.3157 5.37602 10.4259 5.65347 10.4259Z" fill="#3E3F3C"/>
</svg>
