<svg width="130" height="130" viewBox="0 0 130 130" fill="none" xmlns="http://www.w3.org/2000/svg">
<path d="M117.102 79.7266C111.363 86.6836 86.125 107.504 72.998 118.168C68.3262 121.977 61.6484 121.977 56.9766 118.168C43.8496 107.504 18.6367 86.6836 12.873 79.7266C4.08789 69.1387 0 59.0586 0 48.0898C0 37.375 3.65625 27.5234 10.3086 20.3125C17.0625 13.0254 26.2793 8.98828 36.3086 8.98828C43.8242 8.98828 50.6797 11.375 56.7227 16.0469C59.8711 18.5098 62.6641 21.4043 64.9746 24.6797C67.3105 21.4297 70.0781 18.5098 73.2266 16.0469C79.2695 11.3496 86.1504 8.98828 93.666 8.98828C103.721 8.98828 112.938 13.0254 119.666 20.3125C126.293 27.5234 129.975 37.3496 129.975 48.0898C130 59.0586 125.912 69.1387 117.102 79.7266Z" fill="#3E3F3C"/>
<path d="M117.102 79.7266C111.363 86.6836 86.125 107.504 72.998 118.168C68.3262 121.977 61.6484 121.977 56.9766 118.168C43.8496 107.504 18.6367 86.6836 12.873 79.7266C4.08789 69.1387 0 59.0586 0 48.0898C0 37.375 3.65625 27.5234 10.3086 20.3125C17.0625 13.0254 26.2793 8.98828 36.3086 8.98828C43.8242 8.98828 50.6797 11.375 56.7227 16.0469C59.8711 18.5098 62.6641 21.4043 64.9746 24.6797C67.3105 21.4297 70.0781 18.5098 73.2266 16.0469C79.2695 11.3496 86.1504 8.98828 93.666 8.98828C103.721 8.98828 112.938 13.0254 119.666 20.3125C126.293 27.5234 129.975 37.3496 129.975 48.0898C130 59.0586 125.912 69.1387 117.102 79.7266Z" fill="black" fill-opacity="0.2"/>
<path d="M117.102 79.7266C111.363 86.6836 86.125 107.504 72.998 118.168C68.3262 121.977 61.6484 121.977 56.9766 118.168C43.8496 107.504 18.6367 86.6836 12.873 79.7266C4.08789 69.1387 0 59.0586 0 48.0898C0 37.375 3.65625 27.5234 10.3086 20.3125C17.0625 13.0254 26.2793 8.98828 36.3086 8.98828C43.8242 8.98828 50.6797 11.375 56.7227 16.0469C59.8711 18.5098 62.6641 21.4043 64.9746 24.6797C67.3105 21.4297 70.0781 18.5098 73.2266 16.0469C79.2695 11.3496 86.1504 8.98828 93.666 8.98828C103.721 8.98828 112.938 13.0254 119.666 20.3125C126.293 27.5234 129.975 37.3496 129.975 48.0898C130 59.0586 125.912 69.1387 117.102 79.7266Z" fill="black" fill-opacity="0.2"/>
</svg>
