<svg width="196" height="180" viewBox="0 0 196 180" fill="none" xmlns="http://www.w3.org/2000/svg">
<path d="M195.276 90.3577C195.276 140.626 169.402 180.001 136.365 180.001C128.979 179.732 121.752 177.779 115.236 174.291C108.72 170.802 103.088 165.871 98.7695 159.872C101.717 154.659 104.273 149.233 106.418 143.641C109.194 149.412 113.406 154.372 118.65 158.048C123.894 161.724 129.994 163.991 136.365 164.633C156.568 164.633 174.045 139.683 178.672 107.254C175.595 109.365 172 110.595 168.274 110.813C164.548 111.03 160.834 110.226 157.532 108.487C154.23 106.748 151.466 104.14 149.537 100.945C147.609 97.7504 146.59 94.0895 146.59 90.3577C146.59 86.6259 147.609 82.965 149.537 79.7701C151.466 76.5751 154.23 73.9674 157.532 72.2285C160.834 70.4895 164.548 69.6853 168.274 69.9027C172 70.1201 175.595 71.3507 178.672 73.4618C174.045 41.0326 156.568 16.0822 136.365 16.0822C129.994 16.7244 123.894 18.9919 118.65 22.6676C113.406 26.3432 109.194 31.3038 106.418 37.074C104.273 31.4821 101.717 26.0569 98.7695 20.843C103.088 14.8449 108.72 9.91312 115.236 6.4246C121.752 2.93607 128.979 0.983081 136.365 0.714844C169.402 0.714844 195.276 40.0891 195.276 90.3577Z" fill="#3E3F3C"/>
<path d="M96.5066 90.3577C96.5066 140.626 70.6328 180.001 37.5955 180.001C30.2093 179.732 22.9822 177.779 16.4663 174.291C9.95039 170.802 4.31818 165.871 0 159.872C2.94701 154.659 5.50341 149.233 7.64819 143.641C10.4248 149.412 14.6367 154.372 19.8805 158.048C25.1242 161.724 31.224 163.991 37.5955 164.633C57.7984 164.633 75.275 139.683 79.9029 107.254C76.8255 109.365 73.23 110.595 69.5044 110.813C65.7787 111.03 62.0645 110.226 58.7625 108.487C55.4605 106.748 52.6961 104.14 50.7677 100.945C48.8393 97.7504 47.8201 94.0895 47.8201 90.3577C47.8201 86.6259 48.8393 82.965 50.7677 79.7701C52.6961 76.5751 55.4605 73.9674 58.7625 72.2285C62.0645 70.4895 65.7787 69.6853 69.5044 69.9027C73.23 70.1201 76.8255 71.3507 79.9029 73.4618C75.275 41.0326 57.7984 16.0822 37.5955 16.0822C31.224 16.7244 25.1242 18.9919 19.8805 22.6676C14.6367 26.3432 10.4248 31.3038 7.64819 37.074C5.50341 31.4821 2.94701 26.0569 0 20.843C4.31818 14.8449 9.95039 9.91312 16.4663 6.4246C22.9822 2.93607 30.2093 0.983081 37.5955 0.714844C70.6328 0.714844 96.5066 40.0891 96.5066 90.3577Z" fill="#3E3F3C"/>
</svg>
