<svg width="80" height="83" viewBox="0 0 80 83" fill="none" xmlns="http://www.w3.org/2000/svg">
<path d="M77.8688 38.8986L66.5554 35.5236C61.4607 34.0242 56.8199 31.185 53.0769 27.2776C49.334 23.3703 46.6142 18.5256 45.1779 13.2071L41.9449 1.39686C41.7823 0.983655 41.5057 0.63024 41.1503 0.381519C40.7949 0.132797 40.3766 0 39.9487 0C39.5208 0 39.1025 0.132797 38.7471 0.381519C38.3916 0.63024 38.1151 0.983655 37.9525 1.39686L34.7195 13.2071C33.2831 18.5256 30.5634 23.3703 26.8205 27.2776C23.0775 31.185 18.4367 34.0242 13.342 35.5236L2.02861 38.8986C1.59421 39.0273 1.21189 39.3004 0.939656 39.6765C0.667419 40.0526 0.520126 40.5111 0.520126 40.9825C0.520126 41.4539 0.667419 41.9124 0.939656 42.2885C1.21189 42.6646 1.59421 42.9377 2.02861 43.0664L13.342 46.4414C18.4367 47.9408 23.0775 50.78 26.8205 54.6873C30.5634 58.5947 33.2831 63.4394 34.7195 68.7578L37.9525 80.5681C38.0758 81.0216 38.3374 81.4207 38.6976 81.7049C39.0579 81.9891 39.4971 82.1429 39.9487 82.1429C40.4002 82.1429 40.8395 81.9891 41.1997 81.7049C41.56 81.4207 41.8216 81.0216 41.9449 80.5681L45.1779 68.7578C46.6142 63.4394 49.334 58.5947 53.0769 54.6873C56.8199 50.78 61.4607 47.9408 66.5554 46.4414L77.8688 43.0664C78.3032 42.9377 78.6855 42.6646 78.9577 42.2885C79.23 41.9124 79.3773 41.4539 79.3773 40.9825C79.3773 40.5111 79.23 40.0526 78.9577 39.6765C78.6855 39.3004 78.3032 39.0273 77.8688 38.8986Z" fill="#3E3F3C"/>
</svg>
