<svg width="67" height="69" viewBox="0 0 67 69" fill="none" xmlns="http://www.w3.org/2000/svg">
<g filter="url(#filter0_d_35_483)">
<circle cx="32" cy="32" r="32" fill="#F3F4EB"/>
<circle cx="32" cy="32" r="31.5" stroke="#3E3F3C"/>
<circle cx="32" cy="32" r="31.5" stroke="black" stroke-opacity="0.2"/>
<circle cx="32" cy="32" r="31.5" stroke="black" stroke-opacity="0.2"/>
</g>
<path d="M29.9021 40.4469V24.014L22.979 30.979L20 28L32 16L44 28L41.021 30.979L34.0979 24.014V40.4469H29.9021Z" fill="#3E3F3C"/>
<path d="M29.9021 40.4469V24.014L22.979 30.979L20 28L32 16L44 28L41.021 30.979L34.0979 24.014V40.4469H29.9021Z" fill="black" fill-opacity="0.2"/>
<path d="M29.9021 40.4469V24.014L22.979 30.979L20 28L32 16L44 28L41.021 30.979L34.0979 24.014V40.4469H29.9021Z" fill="black" fill-opacity="0.2"/>
<rect x="20" y="44.4263" width="23.8783" height="3.41119" fill="#3E3F3C"/>
<rect x="20" y="44.4263" width="23.8783" height="3.41119" fill="black" fill-opacity="0.2"/>
<rect x="20" y="44.4263" width="23.8783" height="3.41119" fill="black" fill-opacity="0.2"/>
<defs>
<filter id="filter0_d_35_483" x="0" y="0" width="67" height="69" filterUnits="userSpaceOnUse" color-interpolation-filters="sRGB">
<feFlood flood-opacity="0" result="BackgroundImageFix"/>
<feColorMatrix in="SourceAlpha" type="matrix" values="0 0 0 0 0 0 0 0 0 0 0 0 0 0 0 0 0 0 127 0" result="hardAlpha"/>
<feOffset dx="3" dy="5"/>
<feComposite in2="hardAlpha" operator="out"/>
<feColorMatrix type="matrix" values="0 0 0 0 0.244071 0 0 0 0 0.24531 0 0 0 0 0.23646 0 0 0 1 0"/>
<feBlend mode="normal" in2="BackgroundImageFix" result="effect1_dropShadow_35_483"/>
<feBlend mode="normal" in="SourceGraphic" in2="effect1_dropShadow_35_483" result="shape"/>
</filter>
</defs>
</svg>
